<?xml version="1.0" encoding="utf-8"?>
<!-- Generator: Adobe Illustrator 22.0.1, SVG Export Plug-In . SVG Version: 6.00 Build 0)  -->
<svg version="1.1" id="Layer_1" xmlns="http://www.w3.org/2000/svg" xmlns:xlink="http://www.w3.org/1999/xlink" x="0px" y="0px"
	 viewBox="0 0 409.5 512.1" style="enable-background:new 0 0 409.5 512.1;" xml:space="preserve">
<g transform="translate(1 1)">
	<g>
		<g>
			<path d="M391.5,204.7h-57.4L326.7,69C325,29.7,292.6-1,253.3-1h-99C115-1,83.5,29.7,80.9,69l-7.4,134.8H16.1
				c-9.4,0-17.1,7.7-17.1,17.1V238c0,9.4,7.7,17.1,17.1,17.1V349c0,14.5,11.1,25.6,25.6,25.6h8.5v8.5c0,5.1,3.4,8.5,8.5,8.5h25.6
				v93.9c0,14.5,11.1,25.6,25.6,25.6s25.6-11.1,25.6-25.6v-93.9H272v93.9c0,14.5,11.1,25.6,25.6,25.6s25.6-11.1,25.6-25.6v-93.9
				h25.6c5.1,0,8.5-3.4,8.5-8.5v-8.5h8.5c14.5,0,25.6-11.1,25.6-24.7V255c9.4,0,17.1-7.7,17.1-16.2v-17.1
				C408.6,212.3,400.9,204.7,391.5,204.7z M154.3,16.1h99c29.9,0,54.6,23.9,56.3,53.8l9.5,175.8c-0.1,0.5-0.2,1.1-0.2,1.7L321,281
				l0.5,8.7c-0.6-0.1-1.2-0.2-1.7-0.2c-1.5-0.3-3.3-0.3-5.1-0.3H92.9c-1.8,0-3.6,0-5.1,0.3c-0.6,0.1-1.2,0.1-1.7,0.2l2.3-42
				c0.1-0.4,0.2-0.8,0.3-1.2l1.7-34.1c0-0.1,0-0.3,0-0.5l7.7-142C99.7,40,124.4,16.1,154.3,16.1z M16.1,220.9h56.3L71.5,238H24.6
				h-8.5C16.1,237.9,16.1,220.9,16.1,220.9z M41.7,357.4c-5.1,0-8.5-3.4-8.5-8.5V255h37.5l-0.2,3.1l-2.4,38.7
				c-0.2,0.1-0.3,0.2-0.4,0.4c-10.6,7.7-17.5,20.2-17.5,34.6v25.6L41.7,357.4L41.7,357.4z M118.5,485.4c0,5.1-3.4,8.5-8.5,8.5
				s-8.5-3.4-8.5-8.5v-93.9h17.1L118.5,485.4L118.5,485.4z M306.2,485.4c0,5.1-3.4,8.5-8.5,8.5s-8.5-3.4-8.5-8.5v-93.9h17.1v93.9
				H306.2z M340.3,374.5h-25.6h-34.1H127H92.9H67.3V366v-34.1c0-0.6,0-1.1,0.1-1.7v-0.1c0.4-5.4,2.5-10.5,5.8-14.8
				c1.6-1.9,3.4-3.5,5.5-4.9c0.7-0.1,1.5-0.3,2.3-0.7c2.1-1.5,4.4-2.5,6.9-3c0.3,0,0.5-0.1,0.8-0.1c0.1,0,0.3,0,0.4-0.1
				c0.3,0,0.7-0.1,1-0.1c0.1,0,0.2,0,0.4,0c0.3,0,0.6-0.1,1-0.1c0.5,0,0.9,0,1.4,0h221.9c0.5,0,0.9,0,1.4,0c0.3,0,0.7,0,1,0.1
				c0.1,0,0.2,0,0.4,0c0.4,0,0.7,0.1,1,0.1c0.1,0,0.3,0,0.4,0.1c0.3,0,0.5,0.1,0.8,0.1c2.5,0.5,4.9,1.4,6.9,3
				c0.4,0.2,0.7,0.4,1.1,0.6c7.3,4.1,11.9,11.5,12.5,19.8v0.1c0,0.6,0.1,1.1,0.1,1.7V366L340.3,374.5L340.3,374.5z M374.5,348.9
				c0,5.1-3.4,8.5-8.5,8.5h-8.5v-25.6c0-0.8,0-1.7-0.1-2.5c0-0.3,0-0.6-0.1-0.9c0-0.5-0.1-1-0.1-1.5c0-0.4-0.1-0.8-0.1-1.2
				c0-0.3-0.1-0.7-0.2-1c-0.1-0.5-0.2-1-0.3-1.5c0-0.1-0.1-0.3-0.1-0.4c-2.2-10.7-8.3-19.9-17-26l-2.6-41.8h37.5v93.9H374.5z
				 M391.5,237.9H336l-0.9-17.1h56.3v17.1H391.5z"/>
			<path d="M122.7,79.2c5.1,0.9,9.4-2.6,9.4-7.7c0.9-11.9,10.2-21.3,22.2-21.3h99c11.9,0,21.3,9.4,22.2,21.3c0,4.3,4.3,7.7,8.5,7.7
				c5.1,0,8.5-4.3,8.5-8.5c-0.9-21.3-17.9-37.5-39.3-37.5h-99c-20.5,0-38.4,16.2-39.3,36.7C114.2,74.9,117.6,79.2,122.7,79.2z"/>
		</g>
	</g>
</g>
</svg>
