<?xml version="1.0" encoding="utf-8"?>
<!-- Generator: Adobe Illustrator 22.0.1, SVG Export Plug-In . SVG Version: 6.00 Build 0)  -->
<svg version="1.1" id="Capa_1" xmlns="http://www.w3.org/2000/svg" xmlns:xlink="http://www.w3.org/1999/xlink" x="0px" y="0px"
	 viewBox="0 0 47.8 21.5" style="enable-background:new 0 0 47.8 21.5;" xml:space="preserve">
<style type="text/css">
	.st0{fill:#A3A3A3;}
	.st1{fill:#CECECE;}
</style>
<g>
	<g>
		<polygon class="st0" points="19.2,4 16.7,18.3 20.6,18.3 23,4 		"/>
	</g>
</g>
<g>
	<g>
		<path class="st0" d="M13.5,4l-3.8,9.7l-0.4-1.5C8.5,10.5,6.4,8,3.9,6.4l3.5,11.9l4.1,0L17.6,4L13.5,4z"/>
	</g>
</g>
<g>
	<g>
		<path class="st1" d="M7.8,5C7.5,4.2,6.9,3.9,6.1,3.9h-6L0,4.2C4.7,5.3,7.8,8,9.1,11.3L7.8,5z"/>
	</g>
</g>
<g>
	<g>
		<path class="st0" d="M30.9,6.7c1.3,0,2.2,0.3,2.9,0.5l0.4,0.2l0.5-3.1c-0.8-0.3-2-0.6-3.5-0.6c-3.8,0-6.6,1.9-6.6,4.7
			c0,2,1.9,3.2,3.4,3.9c1.5,0.7,2,1.1,2,1.8c0,1-1.2,1.4-2.3,1.4c-1.6,0-2.4-0.2-3.7-0.7l-0.5-0.2L23,17.7c0.9,0.4,2.6,0.7,4.3,0.8
			c4.1,0,6.7-1.9,6.8-4.9c0-1.6-1-2.9-3.3-3.9c-1.4-0.7-2.2-1.1-2.2-1.8C28.7,7.4,29.4,6.7,30.9,6.7z"/>
	</g>
</g>
<g>
	<g>
		<path class="st0" d="M44.7,4h-3c-0.9,0-1.6,0.3-2,1.2l-5.8,13.1H38c0,0,0.7-1.8,0.8-2.1c0.4,0,4.4,0,5,0c0.1,0.5,0.5,2.1,0.5,2.1
			h3.6L44.7,4z M39.9,13.2c0.3-0.8,1.5-4,1.5-4c0,0,0.3-0.8,0.5-1.4l0.3,1.2c0,0,0.7,3.4,0.9,4.1H39.9z"/>
	</g>
</g>
</svg>
