<?xml version="1.0" encoding="utf-8"?>
<!-- Generator: Adobe Illustrator 22.0.1, SVG Export Plug-In . SVG Version: 6.00 Build 0)  -->
<svg version="1.1" id="Layer_1" xmlns="http://www.w3.org/2000/svg" xmlns:xlink="http://www.w3.org/1999/xlink" x="0px" y="0px"
	 viewBox="0 0 512 512" style="enable-background:new 0 0 512 512;" xml:space="preserve">
<style type="text/css">
	.st0{fill:#636363;}
</style>
<g transform="translate(1 1)">
	<g>
		<g>
			<path class="st0" d="M442.7,204.7h-57.4L377.9,69c-1.7-39.3-34.1-70-73.4-70h-99c-39.3,0-70.8,30.7-73.4,70l-7.4,134.8H67.3
				c-9.4,0-17.1,7.7-17.1,17.1v17.1c0,9.4,7.7,17.1,17.1,17.1v93.9c0,14.5,11.1,25.6,25.6,25.6h8.5v8.5c0,5.1,3.4,8.5,8.5,8.5h25.6
				v93.9c0,14.5,11.1,25.6,25.6,25.6s25.6-11.1,25.6-25.6v-93.9h136.5v93.9c0,14.5,11.1,25.6,25.6,25.6c14.5,0,25.6-11.1,25.6-25.6
				v-93.9h25.6c5.1,0,8.5-3.4,8.5-8.5v-8.5h8.5c14.5,0,25.6-11.1,25.6-24.7V255c9.4,0,17.1-7.7,17.1-16.2v-17.1
				C459.8,212.3,452.1,204.7,442.7,204.7z M205.5,16.1h99c29.9,0,54.6,23.9,56.3,53.8l9.5,175.8c-0.1,0.5-0.2,1.1-0.2,1.7l2.1,33.6
				l0.5,8.7c-0.6-0.1-1.2-0.2-1.7-0.2c-1.5-0.3-3.3-0.3-5.1-0.3H144.1c-1.8,0-3.6,0-5.1,0.3c-0.6,0.1-1.2,0.1-1.7,0.2l2.3-42
				c0.1-0.4,0.2-0.8,0.3-1.2l1.7-34.1c0-0.1,0-0.3,0-0.5l7.7-142C150.9,40,175.6,16.1,205.5,16.1z M67.3,220.9h56.3l-0.9,17.1H75.8
				h-8.5C67.3,237.9,67.3,220.9,67.3,220.9z M92.9,357.4c-5.1,0-8.5-3.4-8.5-8.5V255h37.5l-0.2,3.1l-2.4,38.7
				c-0.2,0.1-0.3,0.2-0.4,0.4c-10.6,7.7-17.5,20.2-17.5,34.6v25.6H92.9z M169.7,485.4c0,5.1-3.4,8.5-8.5,8.5s-8.5-3.4-8.5-8.5v-93.9
				h17.1L169.7,485.4L169.7,485.4z M357.4,485.4c0,5.1-3.4,8.5-8.5,8.5s-8.5-3.4-8.5-8.5v-93.9h17.1V485.4z M391.5,374.5h-25.6
				h-34.1H178.2h-34.1h-25.6v-8.5v-34.1c0-0.6,0-1.1,0.1-1.7c0,0,0-0.1,0-0.1c0.4-5.4,2.5-10.5,5.8-14.8c1.6-1.9,3.4-3.5,5.5-4.9
				c0.7-0.1,1.5-0.3,2.3-0.7c2.1-1.5,4.4-2.5,6.9-3c0.3,0,0.5-0.1,0.8-0.1c0.1,0,0.3,0,0.4-0.1c0.3,0,0.7-0.1,1-0.1
				c0.1,0,0.2,0,0.4,0c0.3,0,0.6-0.1,1-0.1c0.5,0,0.9,0,1.4,0h221.9c0.5,0,0.9,0,1.4,0c0.3,0,0.7,0,1,0.1c0.1,0,0.2,0,0.4,0
				c0.4,0,0.7,0.1,1,0.1c0.1,0,0.3,0,0.4,0.1c0.3,0,0.5,0.1,0.8,0.1c2.5,0.5,4.9,1.4,6.9,3c0.4,0.2,0.7,0.4,1.1,0.6
				c7.3,4.1,11.9,11.5,12.5,19.8c0,0,0,0.1,0,0.1c0,0.6,0.1,1.1,0.1,1.7v34.1L391.5,374.5L391.5,374.5z M425.7,348.9
				c0,5.1-3.4,8.5-8.5,8.5h-8.5v-25.6c0-0.8,0-1.7-0.1-2.5c0-0.3,0-0.6-0.1-0.9c0-0.5-0.1-1-0.1-1.5c0-0.4-0.1-0.8-0.1-1.2
				c0-0.3-0.1-0.7-0.2-1c-0.1-0.5-0.2-1-0.3-1.5c0-0.1-0.1-0.3-0.1-0.4c-2.2-10.7-8.3-19.9-17-26l-2.6-41.8h37.5V348.9z
				 M442.7,237.9h-55.5l-0.9-17.1h56.3V237.9z"/>
			<path class="st0" d="M173.9,79.2c5.1,0.9,9.4-2.6,9.4-7.7c0.9-11.9,10.2-21.3,22.2-21.3h99c11.9,0,21.3,9.4,22.2,21.3
				c0,4.3,4.3,7.7,8.5,7.7c5.1,0,8.5-4.3,8.5-8.5c-0.9-21.3-17.9-37.5-39.3-37.5h-99c-20.5,0-38.4,16.2-39.3,36.7
				C165.4,74.9,168.8,79.2,173.9,79.2z"/>
		</g>
	</g>
</g>
</svg>
